<svg width="36" height="42" viewBox="0 0 36 42" fill="none" xmlns="http://www.w3.org/2000/svg">
<path d="M4.50127 14.882C4.57217 14.065 5.30886 13.4354 6.19401 13.4354H29.806C30.6912 13.4354 31.4279 14.065 31.4987 14.882L32.9889 32.0544C33.1477 33.8849 31.5865 35.4515 29.6034 35.4515H6.39658C4.41356 35.4515 2.85228 33.8849 3.01113 32.0544L4.50127 14.882Z" stroke="white" stroke-width="4.8846" stroke-linecap="round" stroke-linejoin="round"/>
<path d="M24.7928 18.1532V10.2903C24.7928 6.81627 21.7515 4 18 4C14.2485 4 11.2073 6.81627 11.2073 10.2903V18.1532" stroke="white" stroke-width="4.8846" stroke-linecap="round" stroke-linejoin="round"/>
<rect x="5" y="15" width="26" height="19" fill="white"/>
<path d="M21.8496 27.8496C21.8496 27.4277 21.7441 27.0469 21.5332 26.707C21.3223 26.3555 20.918 26.0391 20.3203 25.7578C19.7344 25.4766 18.8672 25.2188 17.7188 24.9844C16.7109 24.7617 15.7852 24.498 14.9414 24.1934C14.1094 23.877 13.3945 23.4961 12.7969 23.0508C12.1992 22.6055 11.7363 22.0781 11.4082 21.4688C11.0801 20.8594 10.916 20.1562 10.916 19.3594C10.916 18.5859 11.0859 17.8535 11.4258 17.1621C11.7656 16.4707 12.252 15.8613 12.8848 15.334C13.5176 14.8066 14.2852 14.3906 15.1875 14.0859C16.1016 13.7813 17.1211 13.6289 18.2461 13.6289C19.8398 13.6289 21.2051 13.8984 22.3418 14.4375C23.4902 14.9648 24.3691 15.6855 24.9785 16.5996C25.5879 17.502 25.8926 18.5215 25.8926 19.6582H21.6562C21.6562 19.1543 21.5273 18.6855 21.2695 18.252C21.0234 17.8066 20.6484 17.4492 20.1445 17.1797C19.6406 16.8984 19.0078 16.7578 18.2461 16.7578C17.5195 16.7578 16.916 16.875 16.4355 17.1094C15.9668 17.332 15.6152 17.625 15.3809 17.9883C15.1582 18.3516 15.0469 18.75 15.0469 19.1836C15.0469 19.5 15.1055 19.7871 15.2227 20.0449C15.3516 20.291 15.5625 20.5195 15.8555 20.7305C16.1484 20.9297 16.5469 21.1172 17.0508 21.293C17.5664 21.4688 18.2109 21.6387 18.9844 21.8027C20.4375 22.1074 21.6855 22.5 22.7285 22.9805C23.7832 23.4492 24.5918 24.0586 25.1543 24.8086C25.7168 25.5469 25.998 26.4844 25.998 27.6211C25.998 28.4648 25.8164 29.2383 25.4531 29.9414C25.1016 30.6328 24.5859 31.2363 23.9062 31.752C23.2266 32.2559 22.4121 32.6484 21.4629 32.9297C20.5254 33.2109 19.4707 33.3516 18.2988 33.3516C16.5762 33.3516 15.1172 33.0469 13.9219 32.4375C12.7266 31.8164 11.8184 31.0254 11.1973 30.0645C10.5879 29.0918 10.2832 28.084 10.2832 27.041H14.3789C14.4258 27.8262 14.6426 28.4531 15.0293 28.9219C15.4277 29.3789 15.9199 29.7129 16.5059 29.9238C17.1035 30.123 17.7188 30.2227 18.3516 30.2227C19.1133 30.2227 19.752 30.123 20.2676 29.9238C20.7832 29.7129 21.1758 29.4316 21.4453 29.0801C21.7148 28.7168 21.8496 28.3066 21.8496 27.8496Z" fill="black"/>
</svg>
